<svg width="11" height="19" viewBox="0 0 11 19" fill="none" xmlns="http://www.w3.org/2000/svg">
<path d="M10.9072 9.41357C10.9017 9.60726 10.863 9.78434 10.791 9.94482C10.7191 10.1053 10.6084 10.2603 10.459 10.4097L2.1416 18.4614C1.90365 18.6994 1.61035 18.8184 1.26172 18.8184C1.0293 18.8184 0.819011 18.763 0.630859 18.6523C0.437175 18.5417 0.284993 18.3923 0.174316 18.2041C0.0581055 18.0159 8.85326e-08 17.8057 1.08852e-07 17.5732C1.38846e-07 17.2301 0.130046 16.9285 0.390137 16.6685L7.91065 9.42187L0.390138 2.16699C0.130047 1.90137 1.5053e-06 1.59977 1.53481e-06 1.26221C1.55561e-06 1.02425 0.058107 0.811196 0.174318 0.623046C0.284995 0.434896 0.437176 0.285481 0.630861 0.174804C0.819012 0.0585929 1.0293 0.000487418 1.26172 0.000487438C1.61035 0.000487468 1.90365 0.122232 2.1416 0.365722L10.459 8.41748C10.6139 8.56689 10.7274 8.72184 10.7993 8.88232C10.8713 9.04834 10.9072 9.22542 10.9072 9.41357Z" fill="#1A1B22"/>
</svg>
