<svg width="24" height="24" viewBox="0 0 24 24" fill="none" xmlns="http://www.w3.org/2000/svg">
<path d="M17.9072 12.4136C17.9017 12.6073 17.863 12.7843 17.791 12.9448C17.7191 13.1053 17.6084 13.2603 17.459 13.4097L9.1416 21.4614C8.90365 21.6994 8.61035 21.8184 8.26172 21.8184C8.0293 21.8184 7.81901 21.763 7.63086 21.6523C7.43717 21.5417 7.28499 21.3923 7.17432 21.2041C7.05811 21.0159 7 20.8057 7 20.5732C7 20.2301 7.13005 19.9285 7.39014 19.6685L14.9106 12.4219L7.39014 5.16699C7.13005 4.90137 7 4.59977 7 4.26221C7 4.02425 7.05811 3.8112 7.17432 3.62305C7.28499 3.4349 7.43718 3.28548 7.63086 3.1748C7.81901 3.05859 8.0293 3.00049 8.26172 3.00049C8.61035 3.00049 8.90365 3.12223 9.1416 3.36572L17.459 11.4175C17.6139 11.5669 17.7274 11.7218 17.7993 11.8823C17.8713 12.0483 17.9072 12.2254 17.9072 12.4136Z" fill="#1A1B22"/>
</svg>
